<svg width="100%" height="100%" viewBox="0 0 1448 956" version="1.1" xmlns="http://www.w3.org/2000/svg" xmlns:xlink="http://www.w3.org/1999/xlink" xml:space="preserve" xmlns:serif="http://www.serif.com/" style="fill-rule:evenodd;clip-rule:evenodd;stroke-linejoin:round;stroke-miterlimit:2;">
    <g transform="matrix(1,0,0,1,1,0)">
        <g transform="matrix(1.28352,0,0,1,0,0)">
            <g transform="matrix(0.779106,0,0,1,0,0)">
                <path d="M0,726.708C-5.569,733.39 528.266,1128.88 787.65,863.599C914.315,734.054 1082.85,963.839 1443.96,627.442C1445.8,625.73 1446.47,0 1443.96,0L0,0L0,726.708Z" style="fill:rgb(222,63,140);"/>
            </g>
            <g transform="matrix(0.779106,0,0,1,0,0)">
                <path d="M0,669.697C0,669.697 249.024,950.381 552.743,644.953C757.04,439.507 1297.91,980.639 1445.6,652.06C1446.63,649.769 1446.47,0 1443.96,0L0,0L0,669.697Z" style="fill:rgb(151,51,80);"/>
            </g>
        </g>
    </g>
</svg>
